<?xml version="1.0" encoding="utf-8" standalone="no"?>
<!DOCTYPE svg PUBLIC "-//W3C//DTD SVG 1.1//EN"
  "http://www.w3.org/Graphics/SVG/1.1/DTD/svg11.dtd">
<svg xmlns:xlink="http://www.w3.org/1999/xlink" width="746.43125pt" height="365.542752pt" viewBox="0 0 746.43125 365.542752" xmlns="http://www.w3.org/2000/svg" version="1.1">
 <metadata>
  <rdf:RDF xmlns:dc="http://purl.org/dc/elements/1.1/" xmlns:cc="http://creativecommons.org/ns#" xmlns:rdf="http://www.w3.org/1999/02/22-rdf-syntax-ns#">
   <cc:Work>
    <dc:type rdf:resource="http://purl.org/dc/dcmitype/StillImage"/>
    <dc:date>2026-04-27T01:03:53.298074</dc:date>
    <dc:format>image/svg+xml</dc:format>
    <dc:creator>
     <cc:Agent>
      <dc:title>Matplotlib v3.10.0, https://matplotlib.org/</dc:title>
     </cc:Agent>
    </dc:creator>
   </cc:Work>
  </rdf:RDF>
 </metadata>
 <defs>
  <style type="text/css">*{stroke-linejoin: round; stroke-linecap: butt}</style>
 </defs>
 <g id="figure_1">
  <g id="patch_1">
   <path d="M 0 365.542752 
L 746.43125 365.542752 
L 746.43125 0 
L 0 0 
z
" style="fill: #ffffff"/>
  </g>
  <g id="axes_1">
   <g id="patch_2">
    <path d="M 69.63125 316.558125 
L 739.23125 316.558125 
L 739.23125 22.798125 
L 69.63125 22.798125 
z
" style="fill: #ffffff"/>
   </g>
   <g id="matplotlib.axis_1">
    <g id="xtick_1">
     <g id="line2d_1">
      <defs>
       <path id="m6cdba452d2" d="M 0 0 
L 0 3.5 
" style="stroke: #000000; stroke-width: 0.8"/>
      </defs>
      <g>
       <use xlink:href="#m6cdba452d2" x="100.067614" y="316.558125" style="stroke: #000000; stroke-width: 0.8"/>
      </g>
     </g>
     <g id="text_1">
      <!-- 2019 -->
      <g transform="translate(76.987423 342.863565) rotate(-30) scale(0.1 -0.1)">
       <defs>
        <path id="DejaVuSans-32" d="M 1228 531 
L 3431 531 
L 3431 0 
L 469 0 
L 469 531 
Q 828 903 1448 1529 
Q 2069 2156 2228 2338 
Q 2531 2678 2651 2914 
Q 2772 3150 2772 3378 
Q 2772 3750 2511 3984 
Q 2250 4219 1831 4219 
Q 1534 4219 1204 4116 
Q 875 4013 500 3803 
L 500 4441 
Q 881 4594 1212 4672 
Q 1544 4750 1819 4750 
Q 2544 4750 2975 4387 
Q 3406 4025 3406 3419 
Q 3406 3131 3298 2873 
Q 3191 2616 2906 2266 
Q 2828 2175 2409 1742 
Q 1991 1309 1228 531 
z
" transform="scale(0.015625)"/>
        <path id="DejaVuSans-30" d="M 2034 4250 
Q 1547 4250 1301 3770 
Q 1056 3291 1056 2328 
Q 1056 1369 1301 889 
Q 1547 409 2034 409 
Q 2525 409 2770 889 
Q 3016 1369 3016 2328 
Q 3016 3291 2770 3770 
Q 2525 4250 2034 4250 
z
M 2034 4750 
Q 2819 4750 3233 4129 
Q 3647 3509 3647 2328 
Q 3647 1150 3233 529 
Q 2819 -91 2034 -91 
Q 1250 -91 836 529 
Q 422 1150 422 2328 
Q 422 3509 836 4129 
Q 1250 4750 2034 4750 
z
" transform="scale(0.015625)"/>
        <path id="DejaVuSans-31" d="M 794 531 
L 1825 531 
L 1825 4091 
L 703 3866 
L 703 4441 
L 1819 4666 
L 2450 4666 
L 2450 531 
L 3481 531 
L 3481 0 
L 794 0 
L 794 531 
z
" transform="scale(0.015625)"/>
        <path id="DejaVuSans-39" d="M 703 97 
L 703 672 
Q 941 559 1184 500 
Q 1428 441 1663 441 
Q 2288 441 2617 861 
Q 2947 1281 2994 2138 
Q 2813 1869 2534 1725 
Q 2256 1581 1919 1581 
Q 1219 1581 811 2004 
Q 403 2428 403 3163 
Q 403 3881 828 4315 
Q 1253 4750 1959 4750 
Q 2769 4750 3195 4129 
Q 3622 3509 3622 2328 
Q 3622 1225 3098 567 
Q 2575 -91 1691 -91 
Q 1453 -91 1209 -44 
Q 966 3 703 97 
z
M 1959 2075 
Q 2384 2075 2632 2365 
Q 2881 2656 2881 3163 
Q 2881 3666 2632 3958 
Q 2384 4250 1959 4250 
Q 1534 4250 1286 3958 
Q 1038 3666 1038 3163 
Q 1038 2656 1286 2365 
Q 1534 2075 1959 2075 
z
" transform="scale(0.015625)"/>
       </defs>
       <use xlink:href="#DejaVuSans-32"/>
       <use xlink:href="#DejaVuSans-30" transform="translate(63.623047 0)"/>
       <use xlink:href="#DejaVuSans-31" transform="translate(127.246094 0)"/>
       <use xlink:href="#DejaVuSans-39" transform="translate(190.869141 0)"/>
      </g>
     </g>
    </g>
    <g id="xtick_2">
     <g id="line2d_2">
      <g>
       <use xlink:href="#m6cdba452d2" x="185.919799" y="316.558125" style="stroke: #000000; stroke-width: 0.8"/>
      </g>
     </g>
     <g id="text_2">
      <!-- 2020 -->
      <g transform="translate(162.839608 342.863565) rotate(-30) scale(0.1 -0.1)">
       <use xlink:href="#DejaVuSans-32"/>
       <use xlink:href="#DejaVuSans-30" transform="translate(63.623047 0)"/>
       <use xlink:href="#DejaVuSans-32" transform="translate(127.246094 0)"/>
       <use xlink:href="#DejaVuSans-30" transform="translate(190.869141 0)"/>
      </g>
     </g>
    </g>
    <g id="xtick_3">
     <g id="line2d_3">
      <g>
       <use xlink:href="#m6cdba452d2" x="272.007195" y="316.558125" style="stroke: #000000; stroke-width: 0.8"/>
      </g>
     </g>
     <g id="text_3">
      <!-- 2021 -->
      <g transform="translate(248.927005 342.863565) rotate(-30) scale(0.1 -0.1)">
       <use xlink:href="#DejaVuSans-32"/>
       <use xlink:href="#DejaVuSans-30" transform="translate(63.623047 0)"/>
       <use xlink:href="#DejaVuSans-32" transform="translate(127.246094 0)"/>
       <use xlink:href="#DejaVuSans-31" transform="translate(190.869141 0)"/>
      </g>
     </g>
    </g>
    <g id="xtick_4">
     <g id="line2d_4">
      <g>
       <use xlink:href="#m6cdba452d2" x="357.85938" y="316.558125" style="stroke: #000000; stroke-width: 0.8"/>
      </g>
     </g>
     <g id="text_4">
      <!-- 2022 -->
      <g transform="translate(334.77919 342.863565) rotate(-30) scale(0.1 -0.1)">
       <use xlink:href="#DejaVuSans-32"/>
       <use xlink:href="#DejaVuSans-30" transform="translate(63.623047 0)"/>
       <use xlink:href="#DejaVuSans-32" transform="translate(127.246094 0)"/>
       <use xlink:href="#DejaVuSans-32" transform="translate(190.869141 0)"/>
      </g>
     </g>
    </g>
    <g id="xtick_5">
     <g id="line2d_5">
      <g>
       <use xlink:href="#m6cdba452d2" x="443.711565" y="316.558125" style="stroke: #000000; stroke-width: 0.8"/>
      </g>
     </g>
     <g id="text_5">
      <!-- 2023 -->
      <g transform="translate(420.631374 342.863565) rotate(-30) scale(0.1 -0.1)">
       <defs>
        <path id="DejaVuSans-33" d="M 2597 2516 
Q 3050 2419 3304 2112 
Q 3559 1806 3559 1356 
Q 3559 666 3084 287 
Q 2609 -91 1734 -91 
Q 1441 -91 1130 -33 
Q 819 25 488 141 
L 488 750 
Q 750 597 1062 519 
Q 1375 441 1716 441 
Q 2309 441 2620 675 
Q 2931 909 2931 1356 
Q 2931 1769 2642 2001 
Q 2353 2234 1838 2234 
L 1294 2234 
L 1294 2753 
L 1863 2753 
Q 2328 2753 2575 2939 
Q 2822 3125 2822 3475 
Q 2822 3834 2567 4026 
Q 2313 4219 1838 4219 
Q 1578 4219 1281 4162 
Q 984 4106 628 3988 
L 628 4550 
Q 988 4650 1302 4700 
Q 1616 4750 1894 4750 
Q 2613 4750 3031 4423 
Q 3450 4097 3450 3541 
Q 3450 3153 3228 2886 
Q 3006 2619 2597 2516 
z
" transform="scale(0.015625)"/>
       </defs>
       <use xlink:href="#DejaVuSans-32"/>
       <use xlink:href="#DejaVuSans-30" transform="translate(63.623047 0)"/>
       <use xlink:href="#DejaVuSans-32" transform="translate(127.246094 0)"/>
       <use xlink:href="#DejaVuSans-33" transform="translate(190.869141 0)"/>
      </g>
     </g>
    </g>
    <g id="xtick_6">
     <g id="line2d_6">
      <g>
       <use xlink:href="#m6cdba452d2" x="529.56375" y="316.558125" style="stroke: #000000; stroke-width: 0.8"/>
      </g>
     </g>
     <g id="text_6">
      <!-- 2024 -->
      <g transform="translate(506.483559 342.863565) rotate(-30) scale(0.1 -0.1)">
       <defs>
        <path id="DejaVuSans-34" d="M 2419 4116 
L 825 1625 
L 2419 1625 
L 2419 4116 
z
M 2253 4666 
L 3047 4666 
L 3047 1625 
L 3713 1625 
L 3713 1100 
L 3047 1100 
L 3047 0 
L 2419 0 
L 2419 1100 
L 313 1100 
L 313 1709 
L 2253 4666 
z
" transform="scale(0.015625)"/>
       </defs>
       <use xlink:href="#DejaVuSans-32"/>
       <use xlink:href="#DejaVuSans-30" transform="translate(63.623047 0)"/>
       <use xlink:href="#DejaVuSans-32" transform="translate(127.246094 0)"/>
       <use xlink:href="#DejaVuSans-34" transform="translate(190.869141 0)"/>
      </g>
     </g>
    </g>
    <g id="xtick_7">
     <g id="line2d_7">
      <g>
       <use xlink:href="#m6cdba452d2" x="615.651146" y="316.558125" style="stroke: #000000; stroke-width: 0.8"/>
      </g>
     </g>
     <g id="text_7">
      <!-- 2025 -->
      <g transform="translate(592.570956 342.863565) rotate(-30) scale(0.1 -0.1)">
       <defs>
        <path id="DejaVuSans-35" d="M 691 4666 
L 3169 4666 
L 3169 4134 
L 1269 4134 
L 1269 2991 
Q 1406 3038 1543 3061 
Q 1681 3084 1819 3084 
Q 2600 3084 3056 2656 
Q 3513 2228 3513 1497 
Q 3513 744 3044 326 
Q 2575 -91 1722 -91 
Q 1428 -91 1123 -41 
Q 819 9 494 109 
L 494 744 
Q 775 591 1075 516 
Q 1375 441 1709 441 
Q 2250 441 2565 725 
Q 2881 1009 2881 1497 
Q 2881 1984 2565 2268 
Q 2250 2553 1709 2553 
Q 1456 2553 1204 2497 
Q 953 2441 691 2322 
L 691 4666 
z
" transform="scale(0.015625)"/>
       </defs>
       <use xlink:href="#DejaVuSans-32"/>
       <use xlink:href="#DejaVuSans-30" transform="translate(63.623047 0)"/>
       <use xlink:href="#DejaVuSans-32" transform="translate(127.246094 0)"/>
       <use xlink:href="#DejaVuSans-35" transform="translate(190.869141 0)"/>
      </g>
     </g>
    </g>
    <g id="xtick_8">
     <g id="line2d_8">
      <g>
       <use xlink:href="#m6cdba452d2" x="701.503331" y="316.558125" style="stroke: #000000; stroke-width: 0.8"/>
      </g>
     </g>
     <g id="text_8">
      <!-- 2026 -->
      <g transform="translate(678.423141 342.863565) rotate(-30) scale(0.1 -0.1)">
       <defs>
        <path id="DejaVuSans-36" d="M 2113 2584 
Q 1688 2584 1439 2293 
Q 1191 2003 1191 1497 
Q 1191 994 1439 701 
Q 1688 409 2113 409 
Q 2538 409 2786 701 
Q 3034 994 3034 1497 
Q 3034 2003 2786 2293 
Q 2538 2584 2113 2584 
z
M 3366 4563 
L 3366 3988 
Q 3128 4100 2886 4159 
Q 2644 4219 2406 4219 
Q 1781 4219 1451 3797 
Q 1122 3375 1075 2522 
Q 1259 2794 1537 2939 
Q 1816 3084 2150 3084 
Q 2853 3084 3261 2657 
Q 3669 2231 3669 1497 
Q 3669 778 3244 343 
Q 2819 -91 2113 -91 
Q 1303 -91 875 529 
Q 447 1150 447 2328 
Q 447 3434 972 4092 
Q 1497 4750 2381 4750 
Q 2619 4750 2861 4703 
Q 3103 4656 3366 4563 
z
" transform="scale(0.015625)"/>
       </defs>
       <use xlink:href="#DejaVuSans-32"/>
       <use xlink:href="#DejaVuSans-30" transform="translate(63.623047 0)"/>
       <use xlink:href="#DejaVuSans-32" transform="translate(127.246094 0)"/>
       <use xlink:href="#DejaVuSans-36" transform="translate(190.869141 0)"/>
      </g>
     </g>
    </g>
    <g id="text_9">
     <!-- Rok -->
     <g transform="translate(395.227344 356.263065) scale(0.1 -0.1)">
      <defs>
       <path id="DejaVuSans-52" d="M 2841 2188 
Q 3044 2119 3236 1894 
Q 3428 1669 3622 1275 
L 4263 0 
L 3584 0 
L 2988 1197 
Q 2756 1666 2539 1819 
Q 2322 1972 1947 1972 
L 1259 1972 
L 1259 0 
L 628 0 
L 628 4666 
L 2053 4666 
Q 2853 4666 3247 4331 
Q 3641 3997 3641 3322 
Q 3641 2881 3436 2590 
Q 3231 2300 2841 2188 
z
M 1259 4147 
L 1259 2491 
L 2053 2491 
Q 2509 2491 2742 2702 
Q 2975 2913 2975 3322 
Q 2975 3731 2742 3939 
Q 2509 4147 2053 4147 
L 1259 4147 
z
" transform="scale(0.015625)"/>
       <path id="DejaVuSans-6f" d="M 1959 3097 
Q 1497 3097 1228 2736 
Q 959 2375 959 1747 
Q 959 1119 1226 758 
Q 1494 397 1959 397 
Q 2419 397 2687 759 
Q 2956 1122 2956 1747 
Q 2956 2369 2687 2733 
Q 2419 3097 1959 3097 
z
M 1959 3584 
Q 2709 3584 3137 3096 
Q 3566 2609 3566 1747 
Q 3566 888 3137 398 
Q 2709 -91 1959 -91 
Q 1206 -91 779 398 
Q 353 888 353 1747 
Q 353 2609 779 3096 
Q 1206 3584 1959 3584 
z
" transform="scale(0.015625)"/>
       <path id="DejaVuSans-6b" d="M 581 4863 
L 1159 4863 
L 1159 1991 
L 2875 3500 
L 3609 3500 
L 1753 1863 
L 3688 0 
L 2938 0 
L 1159 1709 
L 1159 0 
L 581 0 
L 581 4863 
z
" transform="scale(0.015625)"/>
      </defs>
      <use xlink:href="#DejaVuSans-52"/>
      <use xlink:href="#DejaVuSans-6f" transform="translate(64.982422 0)"/>
      <use xlink:href="#DejaVuSans-6b" transform="translate(126.164062 0)"/>
     </g>
    </g>
   </g>
   <g id="matplotlib.axis_2">
    <g id="ytick_1">
     <g id="line2d_9">
      <path d="M 69.63125 316.558125 
L 739.23125 316.558125 
" clip-path="url(#p320e89b5e8)" style="fill: none; stroke-dasharray: 2.96,1.28; stroke-dashoffset: 0; stroke: #808080; stroke-opacity: 0.3; stroke-width: 0.8"/>
     </g>
     <g id="line2d_10">
      <defs>
       <path id="m03e33c49d9" d="M 0 0 
L -3.5 0 
" style="stroke: #000000; stroke-width: 0.8"/>
      </defs>
      <g>
       <use xlink:href="#m03e33c49d9" x="69.63125" y="316.558125" style="stroke: #000000; stroke-width: 0.8"/>
      </g>
     </g>
     <g id="text_10">
      <!-- 0 -->
      <g transform="translate(56.26875 320.357344) scale(0.1 -0.1)">
       <use xlink:href="#DejaVuSans-30"/>
      </g>
     </g>
    </g>
    <g id="ytick_2">
     <g id="line2d_11">
      <path d="M 69.63125 263.566065 
L 739.23125 263.566065 
" clip-path="url(#p320e89b5e8)" style="fill: none; stroke-dasharray: 2.96,1.28; stroke-dashoffset: 0; stroke: #808080; stroke-opacity: 0.3; stroke-width: 0.8"/>
     </g>
     <g id="line2d_12">
      <g>
       <use xlink:href="#m03e33c49d9" x="69.63125" y="263.566065" style="stroke: #000000; stroke-width: 0.8"/>
      </g>
     </g>
     <g id="text_11">
      <!-- 50,000 -->
      <g transform="translate(27.640625 267.365284) scale(0.1 -0.1)">
       <defs>
        <path id="DejaVuSans-2c" d="M 750 794 
L 1409 794 
L 1409 256 
L 897 -744 
L 494 -744 
L 750 256 
L 750 794 
z
" transform="scale(0.015625)"/>
       </defs>
       <use xlink:href="#DejaVuSans-35"/>
       <use xlink:href="#DejaVuSans-30" transform="translate(63.623047 0)"/>
       <use xlink:href="#DejaVuSans-2c" transform="translate(127.246094 0)"/>
       <use xlink:href="#DejaVuSans-30" transform="translate(159.033203 0)"/>
       <use xlink:href="#DejaVuSans-30" transform="translate(222.65625 0)"/>
       <use xlink:href="#DejaVuSans-30" transform="translate(286.279297 0)"/>
      </g>
     </g>
    </g>
    <g id="ytick_3">
     <g id="line2d_13">
      <path d="M 69.63125 210.574005 
L 739.23125 210.574005 
" clip-path="url(#p320e89b5e8)" style="fill: none; stroke-dasharray: 2.96,1.28; stroke-dashoffset: 0; stroke: #808080; stroke-opacity: 0.3; stroke-width: 0.8"/>
     </g>
     <g id="line2d_14">
      <g>
       <use xlink:href="#m03e33c49d9" x="69.63125" y="210.574005" style="stroke: #000000; stroke-width: 0.8"/>
      </g>
     </g>
     <g id="text_12">
      <!-- 100,000 -->
      <g transform="translate(21.278125 214.373224) scale(0.1 -0.1)">
       <use xlink:href="#DejaVuSans-31"/>
       <use xlink:href="#DejaVuSans-30" transform="translate(63.623047 0)"/>
       <use xlink:href="#DejaVuSans-30" transform="translate(127.246094 0)"/>
       <use xlink:href="#DejaVuSans-2c" transform="translate(190.869141 0)"/>
       <use xlink:href="#DejaVuSans-30" transform="translate(222.65625 0)"/>
       <use xlink:href="#DejaVuSans-30" transform="translate(286.279297 0)"/>
       <use xlink:href="#DejaVuSans-30" transform="translate(349.902344 0)"/>
      </g>
     </g>
    </g>
    <g id="ytick_4">
     <g id="line2d_15">
      <path d="M 69.63125 157.581945 
L 739.23125 157.581945 
" clip-path="url(#p320e89b5e8)" style="fill: none; stroke-dasharray: 2.96,1.28; stroke-dashoffset: 0; stroke: #808080; stroke-opacity: 0.3; stroke-width: 0.8"/>
     </g>
     <g id="line2d_16">
      <g>
       <use xlink:href="#m03e33c49d9" x="69.63125" y="157.581945" style="stroke: #000000; stroke-width: 0.8"/>
      </g>
     </g>
     <g id="text_13">
      <!-- 150,000 -->
      <g transform="translate(21.278125 161.381164) scale(0.1 -0.1)">
       <use xlink:href="#DejaVuSans-31"/>
       <use xlink:href="#DejaVuSans-35" transform="translate(63.623047 0)"/>
       <use xlink:href="#DejaVuSans-30" transform="translate(127.246094 0)"/>
       <use xlink:href="#DejaVuSans-2c" transform="translate(190.869141 0)"/>
       <use xlink:href="#DejaVuSans-30" transform="translate(222.65625 0)"/>
       <use xlink:href="#DejaVuSans-30" transform="translate(286.279297 0)"/>
       <use xlink:href="#DejaVuSans-30" transform="translate(349.902344 0)"/>
      </g>
     </g>
    </g>
    <g id="ytick_5">
     <g id="line2d_17">
      <path d="M 69.63125 104.589886 
L 739.23125 104.589886 
" clip-path="url(#p320e89b5e8)" style="fill: none; stroke-dasharray: 2.96,1.28; stroke-dashoffset: 0; stroke: #808080; stroke-opacity: 0.3; stroke-width: 0.8"/>
     </g>
     <g id="line2d_18">
      <g>
       <use xlink:href="#m03e33c49d9" x="69.63125" y="104.589886" style="stroke: #000000; stroke-width: 0.8"/>
      </g>
     </g>
     <g id="text_14">
      <!-- 200,000 -->
      <g transform="translate(21.278125 108.389104) scale(0.1 -0.1)">
       <use xlink:href="#DejaVuSans-32"/>
       <use xlink:href="#DejaVuSans-30" transform="translate(63.623047 0)"/>
       <use xlink:href="#DejaVuSans-30" transform="translate(127.246094 0)"/>
       <use xlink:href="#DejaVuSans-2c" transform="translate(190.869141 0)"/>
       <use xlink:href="#DejaVuSans-30" transform="translate(222.65625 0)"/>
       <use xlink:href="#DejaVuSans-30" transform="translate(286.279297 0)"/>
       <use xlink:href="#DejaVuSans-30" transform="translate(349.902344 0)"/>
      </g>
     </g>
    </g>
    <g id="ytick_6">
     <g id="line2d_19">
      <path d="M 69.63125 51.597826 
L 739.23125 51.597826 
" clip-path="url(#p320e89b5e8)" style="fill: none; stroke-dasharray: 2.96,1.28; stroke-dashoffset: 0; stroke: #808080; stroke-opacity: 0.3; stroke-width: 0.8"/>
     </g>
     <g id="line2d_20">
      <g>
       <use xlink:href="#m03e33c49d9" x="69.63125" y="51.597826" style="stroke: #000000; stroke-width: 0.8"/>
      </g>
     </g>
     <g id="text_15">
      <!-- 250,000 -->
      <g transform="translate(21.278125 55.397045) scale(0.1 -0.1)">
       <use xlink:href="#DejaVuSans-32"/>
       <use xlink:href="#DejaVuSans-35" transform="translate(63.623047 0)"/>
       <use xlink:href="#DejaVuSans-30" transform="translate(127.246094 0)"/>
       <use xlink:href="#DejaVuSans-2c" transform="translate(190.869141 0)"/>
       <use xlink:href="#DejaVuSans-30" transform="translate(222.65625 0)"/>
       <use xlink:href="#DejaVuSans-30" transform="translate(286.279297 0)"/>
       <use xlink:href="#DejaVuSans-30" transform="translate(349.902344 0)"/>
      </g>
     </g>
    </g>
    <g id="text_16">
     <!-- Počet prohlídek -->
     <g transform="translate(15.198438 208.215625) rotate(-90) scale(0.1 -0.1)">
      <defs>
       <path id="DejaVuSans-50" d="M 1259 4147 
L 1259 2394 
L 2053 2394 
Q 2494 2394 2734 2622 
Q 2975 2850 2975 3272 
Q 2975 3691 2734 3919 
Q 2494 4147 2053 4147 
L 1259 4147 
z
M 628 4666 
L 2053 4666 
Q 2838 4666 3239 4311 
Q 3641 3956 3641 3272 
Q 3641 2581 3239 2228 
Q 2838 1875 2053 1875 
L 1259 1875 
L 1259 0 
L 628 0 
L 628 4666 
z
" transform="scale(0.015625)"/>
       <path id="DejaVuSans-10d" d="M 3122 3366 
L 3122 2828 
Q 2878 2963 2633 3030 
Q 2388 3097 2138 3097 
Q 1578 3097 1268 2742 
Q 959 2388 959 1747 
Q 959 1106 1268 751 
Q 1578 397 2138 397 
Q 2388 397 2633 464 
Q 2878 531 3122 666 
L 3122 134 
Q 2881 22 2623 -34 
Q 2366 -91 2075 -91 
Q 1284 -91 818 406 
Q 353 903 353 1747 
Q 353 2603 823 3093 
Q 1294 3584 2113 3584 
Q 2378 3584 2631 3529 
Q 2884 3475 3122 3366 
z
M 1801 3944 
L 1035 5119 
L 1470 5119 
L 2032 4353 
L 2595 5119 
L 3029 5119 
L 2263 3944 
L 1801 3944 
z
" transform="scale(0.015625)"/>
       <path id="DejaVuSans-65" d="M 3597 1894 
L 3597 1613 
L 953 1613 
Q 991 1019 1311 708 
Q 1631 397 2203 397 
Q 2534 397 2845 478 
Q 3156 559 3463 722 
L 3463 178 
Q 3153 47 2828 -22 
Q 2503 -91 2169 -91 
Q 1331 -91 842 396 
Q 353 884 353 1716 
Q 353 2575 817 3079 
Q 1281 3584 2069 3584 
Q 2775 3584 3186 3129 
Q 3597 2675 3597 1894 
z
M 3022 2063 
Q 3016 2534 2758 2815 
Q 2500 3097 2075 3097 
Q 1594 3097 1305 2825 
Q 1016 2553 972 2059 
L 3022 2063 
z
" transform="scale(0.015625)"/>
       <path id="DejaVuSans-74" d="M 1172 4494 
L 1172 3500 
L 2356 3500 
L 2356 3053 
L 1172 3053 
L 1172 1153 
Q 1172 725 1289 603 
Q 1406 481 1766 481 
L 2356 481 
L 2356 0 
L 1766 0 
Q 1100 0 847 248 
Q 594 497 594 1153 
L 594 3053 
L 172 3053 
L 172 3500 
L 594 3500 
L 594 4494 
L 1172 4494 
z
" transform="scale(0.015625)"/>
       <path id="DejaVuSans-20" transform="scale(0.015625)"/>
       <path id="DejaVuSans-70" d="M 1159 525 
L 1159 -1331 
L 581 -1331 
L 581 3500 
L 1159 3500 
L 1159 2969 
Q 1341 3281 1617 3432 
Q 1894 3584 2278 3584 
Q 2916 3584 3314 3078 
Q 3713 2572 3713 1747 
Q 3713 922 3314 415 
Q 2916 -91 2278 -91 
Q 1894 -91 1617 61 
Q 1341 213 1159 525 
z
M 3116 1747 
Q 3116 2381 2855 2742 
Q 2594 3103 2138 3103 
Q 1681 3103 1420 2742 
Q 1159 2381 1159 1747 
Q 1159 1113 1420 752 
Q 1681 391 2138 391 
Q 2594 391 2855 752 
Q 3116 1113 3116 1747 
z
" transform="scale(0.015625)"/>
       <path id="DejaVuSans-72" d="M 2631 2963 
Q 2534 3019 2420 3045 
Q 2306 3072 2169 3072 
Q 1681 3072 1420 2755 
Q 1159 2438 1159 1844 
L 1159 0 
L 581 0 
L 581 3500 
L 1159 3500 
L 1159 2956 
Q 1341 3275 1631 3429 
Q 1922 3584 2338 3584 
Q 2397 3584 2469 3576 
Q 2541 3569 2628 3553 
L 2631 2963 
z
" transform="scale(0.015625)"/>
       <path id="DejaVuSans-68" d="M 3513 2113 
L 3513 0 
L 2938 0 
L 2938 2094 
Q 2938 2591 2744 2837 
Q 2550 3084 2163 3084 
Q 1697 3084 1428 2787 
Q 1159 2491 1159 1978 
L 1159 0 
L 581 0 
L 581 4863 
L 1159 4863 
L 1159 2956 
Q 1366 3272 1645 3428 
Q 1925 3584 2291 3584 
Q 2894 3584 3203 3211 
Q 3513 2838 3513 2113 
z
" transform="scale(0.015625)"/>
       <path id="DejaVuSans-6c" d="M 603 4863 
L 1178 4863 
L 1178 0 
L 603 0 
L 603 4863 
z
" transform="scale(0.015625)"/>
       <path id="DejaVuSans-ed" d="M 1322 5119 
L 1944 5119 
L 926 3944 
L 447 3944 
L 1322 5119 
z
M 603 3500 
L 1178 3500 
L 1178 0 
L 603 0 
L 603 3500 
z
M 891 3584 
L 891 3584 
z
" transform="scale(0.015625)"/>
       <path id="DejaVuSans-64" d="M 2906 2969 
L 2906 4863 
L 3481 4863 
L 3481 0 
L 2906 0 
L 2906 525 
Q 2725 213 2448 61 
Q 2172 -91 1784 -91 
Q 1150 -91 751 415 
Q 353 922 353 1747 
Q 353 2572 751 3078 
Q 1150 3584 1784 3584 
Q 2172 3584 2448 3432 
Q 2725 3281 2906 2969 
z
M 947 1747 
Q 947 1113 1208 752 
Q 1469 391 1925 391 
Q 2381 391 2643 752 
Q 2906 1113 2906 1747 
Q 2906 2381 2643 2742 
Q 2381 3103 1925 3103 
Q 1469 3103 1208 2742 
Q 947 2381 947 1747 
z
" transform="scale(0.015625)"/>
      </defs>
      <use xlink:href="#DejaVuSans-50"/>
      <use xlink:href="#DejaVuSans-6f" transform="translate(56.677734 0)"/>
      <use xlink:href="#DejaVuSans-10d" transform="translate(117.859375 0)"/>
      <use xlink:href="#DejaVuSans-65" transform="translate(172.839844 0)"/>
      <use xlink:href="#DejaVuSans-74" transform="translate(234.363281 0)"/>
      <use xlink:href="#DejaVuSans-20" transform="translate(273.572266 0)"/>
      <use xlink:href="#DejaVuSans-70" transform="translate(305.359375 0)"/>
      <use xlink:href="#DejaVuSans-72" transform="translate(368.835938 0)"/>
      <use xlink:href="#DejaVuSans-6f" transform="translate(407.699219 0)"/>
      <use xlink:href="#DejaVuSans-68" transform="translate(468.880859 0)"/>
      <use xlink:href="#DejaVuSans-6c" transform="translate(532.259766 0)"/>
      <use xlink:href="#DejaVuSans-ed" transform="translate(560.042969 0)"/>
      <use xlink:href="#DejaVuSans-64" transform="translate(587.826172 0)"/>
      <use xlink:href="#DejaVuSans-65" transform="translate(651.302734 0)"/>
      <use xlink:href="#DejaVuSans-6b" transform="translate(712.826172 0)"/>
     </g>
    </g>
   </g>
   <g id="line2d_21">
    <path d="M 100.067614 172.256507 
L 107.359169 170.708079 
L 113.94509 121.354454 
L 121.236646 101.164479 
L 128.292989 86.121093 
L 135.584545 117.431981 
L 142.640889 125.855599 
L 149.932444 146.80548 
L 157.224 135.819166 
L 164.280344 100.380196 
L 171.571899 129.498273 
L 178.628243 192.59274 
L 185.919799 156.904707 
L 193.211354 161.000993 
L 200.032486 143.036685 
L 207.324042 101.88835 
L 214.380386 88.157048 
L 221.671941 91.008021 
L 228.728285 147.6099 
L 236.019841 159.731303 
L 243.311396 131.593579 
L 250.36774 109.69726 
L 257.659296 131.510912 
L 264.715639 187.936857 
L 272.007195 162.618311 
L 279.29875 159.893459 
L 285.884671 184.328098 
L 293.176227 168.345693 
L 300.232571 109.980238 
L 307.524126 86.229197 
L 314.58047 109.340094 
L 321.872026 106.034449 
L 329.163581 95.744451 
L 336.219925 82.548368 
L 343.51148 82.886458 
L 350.567824 157.863863 
L 357.85938 127.708202 
L 365.150935 129.682686 
L 371.736856 90.002231 
L 379.028412 95.391524 
L 386.084756 49.50358 
L 393.376311 70.977022 
L 400.432655 143.394911 
L 407.724211 119.679905 
L 415.015766 123.858858 
L 422.07211 101.95512 
L 429.363665 111.533965 
L 436.420009 190.015206 
L 443.711565 139.474559 
L 451.00312 149.996662 
L 457.589041 138.121141 
L 464.880597 138.227126 
L 471.936941 71.05439 
L 479.228496 72.801009 
L 486.28484 114.681693 
L 493.576395 92.234257 
L 500.867951 106.972409 
L 507.924295 53.296751 
L 515.21585 83.877409 
L 522.272194 172.90301 
L 529.56375 109.615653 
L 536.855305 113.195796 
L 543.676438 100.207442 
L 550.967993 67.082106 
L 558.024337 53.123997 
L 565.315892 87.279499 
L 572.372236 108.420152 
L 579.663792 123.37769 
L 586.955347 118.874425 
L 594.011691 77.843733 
L 601.303247 113.30496 
L 608.359591 184.525228 
L 615.651146 129.005447 
L 622.942701 149.456143 
L 629.528622 122.927258 
L 636.820178 91.872851 
L 643.876522 67.125559 
L 651.168077 72.280627 
L 658.224421 86.997582 
L 665.515977 115.193597 
L 672.807532 89.175555 
L 679.863876 59.106801 
L 687.155432 103.395445 
L 694.211776 161.661274 
L 701.503331 119.460517 
L 708.794886 119.963942 
" clip-path="url(#p320e89b5e8)" style="fill: none; stroke: #1f77b4; stroke-width: 1.5; stroke-linecap: square"/>
    <defs>
     <path id="m59c78fab88" d="M -0.49999 0.49999 
L 0.50001 0.49999 
L 0.50001 -0.50001 
L -0.49999 -0.50001 
z
"/>
    </defs>
    <g clip-path="url(#p320e89b5e8)">
     <use xlink:href="#m59c78fab88" x="100.067614" y="172.256507" style="fill: #1f77b4"/>
     <use xlink:href="#m59c78fab88" x="107.359169" y="170.708079" style="fill: #1f77b4"/>
     <use xlink:href="#m59c78fab88" x="113.94509" y="121.354454" style="fill: #1f77b4"/>
     <use xlink:href="#m59c78fab88" x="121.236646" y="101.164479" style="fill: #1f77b4"/>
     <use xlink:href="#m59c78fab88" x="128.292989" y="86.121093" style="fill: #1f77b4"/>
     <use xlink:href="#m59c78fab88" x="135.584545" y="117.431981" style="fill: #1f77b4"/>
     <use xlink:href="#m59c78fab88" x="142.640889" y="125.855599" style="fill: #1f77b4"/>
     <use xlink:href="#m59c78fab88" x="149.932444" y="146.80548" style="fill: #1f77b4"/>
     <use xlink:href="#m59c78fab88" x="157.224" y="135.819166" style="fill: #1f77b4"/>
     <use xlink:href="#m59c78fab88" x="164.280344" y="100.380196" style="fill: #1f77b4"/>
     <use xlink:href="#m59c78fab88" x="171.571899" y="129.498273" style="fill: #1f77b4"/>
     <use xlink:href="#m59c78fab88" x="178.628243" y="192.59274" style="fill: #1f77b4"/>
     <use xlink:href="#m59c78fab88" x="185.919799" y="156.904707" style="fill: #1f77b4"/>
     <use xlink:href="#m59c78fab88" x="193.211354" y="161.000993" style="fill: #1f77b4"/>
     <use xlink:href="#m59c78fab88" x="200.032486" y="143.036685" style="fill: #1f77b4"/>
     <use xlink:href="#m59c78fab88" x="207.324042" y="101.88835" style="fill: #1f77b4"/>
     <use xlink:href="#m59c78fab88" x="214.380386" y="88.157048" style="fill: #1f77b4"/>
     <use xlink:href="#m59c78fab88" x="221.671941" y="91.008021" style="fill: #1f77b4"/>
     <use xlink:href="#m59c78fab88" x="228.728285" y="147.6099" style="fill: #1f77b4"/>
     <use xlink:href="#m59c78fab88" x="236.019841" y="159.731303" style="fill: #1f77b4"/>
     <use xlink:href="#m59c78fab88" x="243.311396" y="131.593579" style="fill: #1f77b4"/>
     <use xlink:href="#m59c78fab88" x="250.36774" y="109.69726" style="fill: #1f77b4"/>
     <use xlink:href="#m59c78fab88" x="257.659296" y="131.510912" style="fill: #1f77b4"/>
     <use xlink:href="#m59c78fab88" x="264.715639" y="187.936857" style="fill: #1f77b4"/>
     <use xlink:href="#m59c78fab88" x="272.007195" y="162.618311" style="fill: #1f77b4"/>
     <use xlink:href="#m59c78fab88" x="279.29875" y="159.893459" style="fill: #1f77b4"/>
     <use xlink:href="#m59c78fab88" x="285.884671" y="184.328098" style="fill: #1f77b4"/>
     <use xlink:href="#m59c78fab88" x="293.176227" y="168.345693" style="fill: #1f77b4"/>
     <use xlink:href="#m59c78fab88" x="300.232571" y="109.980238" style="fill: #1f77b4"/>
     <use xlink:href="#m59c78fab88" x="307.524126" y="86.229197" style="fill: #1f77b4"/>
     <use xlink:href="#m59c78fab88" x="314.58047" y="109.340094" style="fill: #1f77b4"/>
     <use xlink:href="#m59c78fab88" x="321.872026" y="106.034449" style="fill: #1f77b4"/>
     <use xlink:href="#m59c78fab88" x="329.163581" y="95.744451" style="fill: #1f77b4"/>
     <use xlink:href="#m59c78fab88" x="336.219925" y="82.548368" style="fill: #1f77b4"/>
     <use xlink:href="#m59c78fab88" x="343.51148" y="82.886458" style="fill: #1f77b4"/>
     <use xlink:href="#m59c78fab88" x="350.567824" y="157.863863" style="fill: #1f77b4"/>
     <use xlink:href="#m59c78fab88" x="357.85938" y="127.708202" style="fill: #1f77b4"/>
     <use xlink:href="#m59c78fab88" x="365.150935" y="129.682686" style="fill: #1f77b4"/>
     <use xlink:href="#m59c78fab88" x="371.736856" y="90.002231" style="fill: #1f77b4"/>
     <use xlink:href="#m59c78fab88" x="379.028412" y="95.391524" style="fill: #1f77b4"/>
     <use xlink:href="#m59c78fab88" x="386.084756" y="49.50358" style="fill: #1f77b4"/>
     <use xlink:href="#m59c78fab88" x="393.376311" y="70.977022" style="fill: #1f77b4"/>
     <use xlink:href="#m59c78fab88" x="400.432655" y="143.394911" style="fill: #1f77b4"/>
     <use xlink:href="#m59c78fab88" x="407.724211" y="119.679905" style="fill: #1f77b4"/>
     <use xlink:href="#m59c78fab88" x="415.015766" y="123.858858" style="fill: #1f77b4"/>
     <use xlink:href="#m59c78fab88" x="422.07211" y="101.95512" style="fill: #1f77b4"/>
     <use xlink:href="#m59c78fab88" x="429.363665" y="111.533965" style="fill: #1f77b4"/>
     <use xlink:href="#m59c78fab88" x="436.420009" y="190.015206" style="fill: #1f77b4"/>
     <use xlink:href="#m59c78fab88" x="443.711565" y="139.474559" style="fill: #1f77b4"/>
     <use xlink:href="#m59c78fab88" x="451.00312" y="149.996662" style="fill: #1f77b4"/>
     <use xlink:href="#m59c78fab88" x="457.589041" y="138.121141" style="fill: #1f77b4"/>
     <use xlink:href="#m59c78fab88" x="464.880597" y="138.227126" style="fill: #1f77b4"/>
     <use xlink:href="#m59c78fab88" x="471.936941" y="71.05439" style="fill: #1f77b4"/>
     <use xlink:href="#m59c78fab88" x="479.228496" y="72.801009" style="fill: #1f77b4"/>
     <use xlink:href="#m59c78fab88" x="486.28484" y="114.681693" style="fill: #1f77b4"/>
     <use xlink:href="#m59c78fab88" x="493.576395" y="92.234257" style="fill: #1f77b4"/>
     <use xlink:href="#m59c78fab88" x="500.867951" y="106.972409" style="fill: #1f77b4"/>
     <use xlink:href="#m59c78fab88" x="507.924295" y="53.296751" style="fill: #1f77b4"/>
     <use xlink:href="#m59c78fab88" x="515.21585" y="83.877409" style="fill: #1f77b4"/>
     <use xlink:href="#m59c78fab88" x="522.272194" y="172.90301" style="fill: #1f77b4"/>
     <use xlink:href="#m59c78fab88" x="529.56375" y="109.615653" style="fill: #1f77b4"/>
     <use xlink:href="#m59c78fab88" x="536.855305" y="113.195796" style="fill: #1f77b4"/>
     <use xlink:href="#m59c78fab88" x="543.676438" y="100.207442" style="fill: #1f77b4"/>
     <use xlink:href="#m59c78fab88" x="550.967993" y="67.082106" style="fill: #1f77b4"/>
     <use xlink:href="#m59c78fab88" x="558.024337" y="53.123997" style="fill: #1f77b4"/>
     <use xlink:href="#m59c78fab88" x="565.315892" y="87.279499" style="fill: #1f77b4"/>
     <use xlink:href="#m59c78fab88" x="572.372236" y="108.420152" style="fill: #1f77b4"/>
     <use xlink:href="#m59c78fab88" x="579.663792" y="123.37769" style="fill: #1f77b4"/>
     <use xlink:href="#m59c78fab88" x="586.955347" y="118.874425" style="fill: #1f77b4"/>
     <use xlink:href="#m59c78fab88" x="594.011691" y="77.843733" style="fill: #1f77b4"/>
     <use xlink:href="#m59c78fab88" x="601.303247" y="113.30496" style="fill: #1f77b4"/>
     <use xlink:href="#m59c78fab88" x="608.359591" y="184.525228" style="fill: #1f77b4"/>
     <use xlink:href="#m59c78fab88" x="615.651146" y="129.005447" style="fill: #1f77b4"/>
     <use xlink:href="#m59c78fab88" x="622.942701" y="149.456143" style="fill: #1f77b4"/>
     <use xlink:href="#m59c78fab88" x="629.528622" y="122.927258" style="fill: #1f77b4"/>
     <use xlink:href="#m59c78fab88" x="636.820178" y="91.872851" style="fill: #1f77b4"/>
     <use xlink:href="#m59c78fab88" x="643.876522" y="67.125559" style="fill: #1f77b4"/>
     <use xlink:href="#m59c78fab88" x="651.168077" y="72.280627" style="fill: #1f77b4"/>
     <use xlink:href="#m59c78fab88" x="658.224421" y="86.997582" style="fill: #1f77b4"/>
     <use xlink:href="#m59c78fab88" x="665.515977" y="115.193597" style="fill: #1f77b4"/>
     <use xlink:href="#m59c78fab88" x="672.807532" y="89.175555" style="fill: #1f77b4"/>
     <use xlink:href="#m59c78fab88" x="679.863876" y="59.106801" style="fill: #1f77b4"/>
     <use xlink:href="#m59c78fab88" x="687.155432" y="103.395445" style="fill: #1f77b4"/>
     <use xlink:href="#m59c78fab88" x="694.211776" y="161.661274" style="fill: #1f77b4"/>
     <use xlink:href="#m59c78fab88" x="701.503331" y="119.460517" style="fill: #1f77b4"/>
     <use xlink:href="#m59c78fab88" x="708.794886" y="119.963942" style="fill: #1f77b4"/>
    </g>
   </g>
   <g id="patch_3">
    <path d="M 69.63125 316.558125 
L 69.63125 22.798125 
" style="fill: none; stroke: #000000; stroke-width: 0.8; stroke-linejoin: miter; stroke-linecap: square"/>
   </g>
   <g id="patch_4">
    <path d="M 69.63125 316.558125 
L 739.23125 316.558125 
" style="fill: none; stroke: #000000; stroke-width: 0.8; stroke-linejoin: miter; stroke-linecap: square"/>
   </g>
   <g id="text_17">
    <!-- Počty měsíčních měření emisí -->
    <g transform="translate(315.213125 16.798125) scale(0.12 -0.12)">
     <defs>
      <path id="DejaVuSans-79" d="M 2059 -325 
Q 1816 -950 1584 -1140 
Q 1353 -1331 966 -1331 
L 506 -1331 
L 506 -850 
L 844 -850 
Q 1081 -850 1212 -737 
Q 1344 -625 1503 -206 
L 1606 56 
L 191 3500 
L 800 3500 
L 1894 763 
L 2988 3500 
L 3597 3500 
L 2059 -325 
z
" transform="scale(0.015625)"/>
      <path id="DejaVuSans-6d" d="M 3328 2828 
Q 3544 3216 3844 3400 
Q 4144 3584 4550 3584 
Q 5097 3584 5394 3201 
Q 5691 2819 5691 2113 
L 5691 0 
L 5113 0 
L 5113 2094 
Q 5113 2597 4934 2840 
Q 4756 3084 4391 3084 
Q 3944 3084 3684 2787 
Q 3425 2491 3425 1978 
L 3425 0 
L 2847 0 
L 2847 2094 
Q 2847 2600 2669 2842 
Q 2491 3084 2119 3084 
Q 1678 3084 1418 2786 
Q 1159 2488 1159 1978 
L 1159 0 
L 581 0 
L 581 3500 
L 1159 3500 
L 1159 2956 
Q 1356 3278 1631 3431 
Q 1906 3584 2284 3584 
Q 2666 3584 2933 3390 
Q 3200 3197 3328 2828 
z
" transform="scale(0.015625)"/>
      <path id="DejaVuSans-11b" d="M 3597 1894 
L 3597 1613 
L 953 1613 
Q 991 1019 1311 708 
Q 1631 397 2203 397 
Q 2534 397 2845 478 
Q 3156 559 3463 722 
L 3463 178 
Q 3153 47 2828 -22 
Q 2503 -91 2169 -91 
Q 1331 -91 842 396 
Q 353 884 353 1716 
Q 353 2575 817 3079 
Q 1281 3584 2069 3584 
Q 2775 3584 3186 3129 
Q 3597 2675 3597 1894 
z
M 3022 2063 
Q 3016 2534 2758 2815 
Q 2500 3097 2075 3097 
Q 1594 3097 1305 2825 
Q 1016 2553 972 2059 
L 3022 2063 
z
M 1833 3944 
L 1067 5119 
L 1502 5119 
L 2064 4353 
L 2627 5119 
L 3061 5119 
L 2295 3944 
L 1833 3944 
z
" transform="scale(0.015625)"/>
      <path id="DejaVuSans-73" d="M 2834 3397 
L 2834 2853 
Q 2591 2978 2328 3040 
Q 2066 3103 1784 3103 
Q 1356 3103 1142 2972 
Q 928 2841 928 2578 
Q 928 2378 1081 2264 
Q 1234 2150 1697 2047 
L 1894 2003 
Q 2506 1872 2764 1633 
Q 3022 1394 3022 966 
Q 3022 478 2636 193 
Q 2250 -91 1575 -91 
Q 1294 -91 989 -36 
Q 684 19 347 128 
L 347 722 
Q 666 556 975 473 
Q 1284 391 1588 391 
Q 1994 391 2212 530 
Q 2431 669 2431 922 
Q 2431 1156 2273 1281 
Q 2116 1406 1581 1522 
L 1381 1569 
Q 847 1681 609 1914 
Q 372 2147 372 2553 
Q 372 3047 722 3315 
Q 1072 3584 1716 3584 
Q 2034 3584 2315 3537 
Q 2597 3491 2834 3397 
z
" transform="scale(0.015625)"/>
      <path id="DejaVuSans-6e" d="M 3513 2113 
L 3513 0 
L 2938 0 
L 2938 2094 
Q 2938 2591 2744 2837 
Q 2550 3084 2163 3084 
Q 1697 3084 1428 2787 
Q 1159 2491 1159 1978 
L 1159 0 
L 581 0 
L 581 3500 
L 1159 3500 
L 1159 2956 
Q 1366 3272 1645 3428 
Q 1925 3584 2291 3584 
Q 2894 3584 3203 3211 
Q 3513 2838 3513 2113 
z
" transform="scale(0.015625)"/>
      <path id="DejaVuSans-63" d="M 3122 3366 
L 3122 2828 
Q 2878 2963 2633 3030 
Q 2388 3097 2138 3097 
Q 1578 3097 1268 2742 
Q 959 2388 959 1747 
Q 959 1106 1268 751 
Q 1578 397 2138 397 
Q 2388 397 2633 464 
Q 2878 531 3122 666 
L 3122 134 
Q 2881 22 2623 -34 
Q 2366 -91 2075 -91 
Q 1284 -91 818 406 
Q 353 903 353 1747 
Q 353 2603 823 3093 
Q 1294 3584 2113 3584 
Q 2378 3584 2631 3529 
Q 2884 3475 3122 3366 
z
" transform="scale(0.015625)"/>
      <path id="DejaVuSans-159" d="M 2631 2963 
Q 2534 3019 2420 3045 
Q 2306 3072 2169 3072 
Q 1681 3072 1420 2755 
Q 1159 2438 1159 1844 
L 1159 0 
L 581 0 
L 581 3500 
L 1159 3500 
L 1159 2956 
Q 1341 3275 1631 3429 
Q 1922 3584 2338 3584 
Q 2397 3584 2469 3576 
Q 2541 3569 2628 3553 
L 2631 2963 
z
M 1457 3944 
L 691 5119 
L 1126 5119 
L 1688 4353 
L 2251 5119 
L 2685 5119 
L 1919 3944 
L 1457 3944 
z
" transform="scale(0.015625)"/>
      <path id="DejaVuSans-69" d="M 603 3500 
L 1178 3500 
L 1178 0 
L 603 0 
L 603 3500 
z
M 603 4863 
L 1178 4863 
L 1178 4134 
L 603 4134 
L 603 4863 
z
" transform="scale(0.015625)"/>
     </defs>
     <use xlink:href="#DejaVuSans-50"/>
     <use xlink:href="#DejaVuSans-6f" transform="translate(56.677734 0)"/>
     <use xlink:href="#DejaVuSans-10d" transform="translate(117.859375 0)"/>
     <use xlink:href="#DejaVuSans-74" transform="translate(172.839844 0)"/>
     <use xlink:href="#DejaVuSans-79" transform="translate(212.048828 0)"/>
     <use xlink:href="#DejaVuSans-20" transform="translate(271.228516 0)"/>
     <use xlink:href="#DejaVuSans-6d" transform="translate(303.015625 0)"/>
     <use xlink:href="#DejaVuSans-11b" transform="translate(400.427734 0)"/>
     <use xlink:href="#DejaVuSans-73" transform="translate(461.951172 0)"/>
     <use xlink:href="#DejaVuSans-ed" transform="translate(514.050781 0)"/>
     <use xlink:href="#DejaVuSans-10d" transform="translate(541.833984 0)"/>
     <use xlink:href="#DejaVuSans-6e" transform="translate(596.814453 0)"/>
     <use xlink:href="#DejaVuSans-ed" transform="translate(660.193359 0)"/>
     <use xlink:href="#DejaVuSans-63" transform="translate(687.976562 0)"/>
     <use xlink:href="#DejaVuSans-68" transform="translate(742.957031 0)"/>
     <use xlink:href="#DejaVuSans-20" transform="translate(806.335938 0)"/>
     <use xlink:href="#DejaVuSans-6d" transform="translate(838.123047 0)"/>
     <use xlink:href="#DejaVuSans-11b" transform="translate(935.535156 0)"/>
     <use xlink:href="#DejaVuSans-159" transform="translate(997.058594 0)"/>
     <use xlink:href="#DejaVuSans-65" transform="translate(1035.921875 0)"/>
     <use xlink:href="#DejaVuSans-6e" transform="translate(1097.445312 0)"/>
     <use xlink:href="#DejaVuSans-ed" transform="translate(1160.824219 0)"/>
     <use xlink:href="#DejaVuSans-20" transform="translate(1188.607422 0)"/>
     <use xlink:href="#DejaVuSans-65" transform="translate(1220.394531 0)"/>
     <use xlink:href="#DejaVuSans-6d" transform="translate(1281.917969 0)"/>
     <use xlink:href="#DejaVuSans-69" transform="translate(1379.330078 0)"/>
     <use xlink:href="#DejaVuSans-73" transform="translate(1407.113281 0)"/>
     <use xlink:href="#DejaVuSans-ed" transform="translate(1459.212891 0)"/>
    </g>
   </g>
  </g>
 </g>
 <defs>
  <clipPath id="p320e89b5e8">
   <rect x="69.63125" y="22.798125" width="669.6" height="293.76"/>
  </clipPath>
 </defs>
</svg>
